<svg width="50" height="50" viewBox="0 0 50 50" fill="none" xmlns="http://www.w3.org/2000/svg">
<path d="M39.7307 0H10.2694C4.59776 0 0 4.59766 0 10.2693V39.7307C0 45.4023 4.59776 50 10.2694 50H39.7307C45.4023 50 50 45.4023 50 39.7307V10.2693C50 4.59766 45.4023 0 39.7307 0Z" fill="#100F0D"/>
<path d="M31.0622 42.2473C30.2736 42.2473 29.6354 41.6092 29.6354 40.8207V35.2989C29.7163 34.2202 29.3721 33.2646 28.6963 32.5679C28.3173 32.1764 28.1933 31.6037 28.3773 31.0923C28.5626 30.5796 29.021 30.2173 29.563 30.156C33.6763 29.699 37.4828 28.3433 37.4828 21.587C37.4828 19.954 36.8627 18.4032 35.7356 17.2202C35.3593 16.8252 35.2423 16.2491 35.4331 15.7377C35.8456 14.6306 35.9111 13.4444 35.631 12.3169C34.9595 12.4717 33.7181 12.9079 31.8564 14.155C31.5137 14.3869 31.0859 14.4538 30.6888 14.3472C27.6667 13.5266 24.471 13.5266 21.4482 14.3472C21.0497 14.4525 20.6226 14.3849 20.2805 14.155C18.4372 12.9189 17.202 12.48 16.5032 12.3269C16.2259 13.4514 16.2921 14.6343 16.7046 15.7377C16.8954 16.2491 16.7777 16.8245 16.4015 17.2202C15.2659 18.4129 14.6459 19.9763 14.6542 21.6225C14.6542 28.2973 18.4692 29.6907 22.5914 30.202C23.1285 30.2689 23.5814 30.6325 23.7611 31.1425C23.9416 31.6539 23.8175 32.221 23.4406 32.6097C22.7746 33.298 22.4312 34.2426 22.498 35.1986L22.4987 36.447C22.5029 36.5095 22.5029 36.571 22.4987 36.6322L22.5016 40.8207C22.5016 41.6092 21.8627 42.2473 21.0748 42.2473C20.2868 42.2473 19.648 41.6092 19.648 40.8207V38.3279C15.3425 38.983 13.5194 36.6726 12.2654 35.0786C11.7108 34.375 11.2315 33.7663 10.741 33.6436C9.9768 33.4528 9.51212 32.678 9.70301 31.9144C9.89531 31.1481 10.67 30.6869 11.4335 30.8764C12.8701 31.2345 13.7395 32.3394 14.5072 33.3133C15.7006 34.8292 16.6676 36.0553 19.648 35.4352V35.2989C19.5839 34.4141 19.733 33.5083 20.0716 32.6626C16.0511 31.7458 11.8007 29.2824 11.8007 21.6302C11.7896 19.5395 12.4827 17.5352 13.7674 15.9065C13.2769 14.047 13.4177 12.0843 14.1847 10.296C14.3519 9.90661 14.6835 9.61113 15.0904 9.4908C15.6101 9.33404 17.5552 9.04424 21.3298 11.4331C24.4439 10.6931 27.6945 10.6944 30.8073 11.4331C34.5804 9.04491 36.5241 9.3347 37.0466 9.4908C37.4534 9.61113 37.7849 9.90661 37.9524 10.296C38.7185 12.0843 38.8609 14.047 38.3702 15.9065C39.6437 17.5212 40.3363 19.5081 40.3363 21.587C40.3363 29.6851 35.4151 31.9269 32.0766 32.6543C32.4152 33.521 32.56 34.4629 32.4848 35.4118L32.489 40.8207C32.489 41.6092 31.8509 42.2473 31.0622 42.2473Z" fill="white"/>
</svg>
