<svg width="50" height="50" viewBox="0 0 50 50" fill="none" xmlns="http://www.w3.org/2000/svg">
<path d="M50 39.7307C50 45.4039 45.4039 50 39.7304 50H10.2706C4.59803 50 0 45.4039 0 39.7307V10.272C0 4.60069 4.59803 0 10.2706 0H39.7304C45.4039 0 50 4.60069 50 10.272V39.7307Z" fill="black"/>
<path d="M11.2453 6.92866C13.6428 6.92866 15.5929 8.87947 15.5929 11.2827C15.5929 13.6834 13.6428 15.6293 11.2453 15.6293C8.84032 15.6293 6.896 13.6834 6.896 11.2827C6.896 8.87947 8.84032 6.92866 11.2453 6.92866ZM7.49211 18.9291H14.9968V43.0712H7.49211V18.9291Z" fill="white"/>
<path d="M19.7026 18.9291H26.9007V22.2318H27.0047C28.0049 20.3326 30.4531 18.3331 34.1032 18.3331C41.7018 18.3331 43.1054 23.3314 43.1054 29.8301V43.0716H35.6036V31.3313C35.6036 28.5315 35.5556 24.9285 31.7038 24.9285C27.7996 24.9285 27.2036 27.9816 27.2036 31.1306V43.0716H19.7026V18.9291Z" fill="white"/>
</svg>
