<svg width="24" height="31" viewBox="0 0 24 31" fill="none" xmlns="http://www.w3.org/2000/svg">
<path d="M12.1549 27.3943C8.26457 27.3943 5.32057 26.264 3.32286 24.0034C1.35143 21.7166 0.365715 18.3389 0.365715 13.8703C0.365715 9.40171 1.35143 6.03714 3.32286 3.77657C5.32057 1.48971 8.26457 0.346282 12.1549 0.346282C16.0714 0.346282 19.0154 1.48971 20.9869 3.77657C22.9846 6.03714 23.9834 9.40171 23.9834 13.8703C23.9834 18.3389 22.9846 21.7166 20.9869 24.0034C19.0154 26.264 16.0714 27.3943 12.1549 27.3943ZM12.1549 24.7131C14.2577 24.6343 15.9663 24.2137 17.2806 23.4514C18.5949 22.6891 19.5543 21.5326 20.1589 19.9817C20.7634 18.4046 21.0657 16.3674 21.0657 13.8703C21.0657 11.3731 20.7503 9.336 20.1194 7.75885C19.5149 6.15543 18.5554 4.97257 17.2411 4.21028C15.9269 3.42171 14.2314 3.02743 12.1549 3.02743C10.1046 3.02743 8.42229 3.42171 7.108 4.21028C5.79372 4.97257 4.82114 6.15543 4.19029 7.75885C3.58571 9.336 3.28343 11.3731 3.28343 13.8703C3.28343 16.3674 3.58571 18.4177 4.19029 20.0211C4.82114 21.6246 5.79372 22.8074 7.108 23.5697C8.42229 24.332 10.1046 24.7131 12.1549 24.7131ZM21.6177 28.104C21.9594 28.104 22.288 28.0514 22.6034 27.9463C22.9451 27.8674 23.392 27.6571 23.944 27.3154V29.8389C23.3657 30.1543 22.84 30.3514 22.3669 30.4303C21.8937 30.5091 21.5389 30.5486 21.3023 30.5486C20.6977 30.5486 20.1326 30.4434 19.6069 30.2331C19.0811 30.0491 18.5817 29.7731 18.1086 29.4051C17.6617 29.0371 17.2411 28.5903 16.8469 28.0646C16.4526 27.5651 16.0977 27 15.7823 26.3691C15.388 25.5806 14.9674 24.8183 14.5206 24.0823C14.1 23.3463 13.5874 22.7417 12.9829 22.2686C12.3783 21.7954 11.5897 21.5589 10.6171 21.5589C9.61829 21.5589 8.764 21.7823 8.05429 22.2291C7.37086 22.676 6.75314 23.2017 6.20114 23.8063V20.9674C6.648 20.6257 7.25257 20.2446 8.01486 19.824C8.77714 19.3771 9.74972 19.1537 10.9326 19.1537C12.168 19.1537 13.2457 19.456 14.1657 20.0606C15.0857 20.6389 15.8743 21.3749 16.5314 22.2686C17.2149 23.136 17.7931 24.0297 18.2663 24.9497C18.8709 26.1063 19.436 26.9211 19.9617 27.3943C20.4874 27.8674 21.0394 28.104 21.6177 28.104Z" fill="#38BC7C"/>
</svg>
