<svg width="138" height="94" viewBox="0 0 138 94" fill="none" xmlns="http://www.w3.org/2000/svg">
<path d="M14.1549 38.3943C10.2646 38.3943 7.32057 37.264 5.32286 35.0034C3.35143 32.7166 2.36571 29.3389 2.36571 24.8703C2.36571 20.4017 3.35143 17.0371 5.32286 14.7766C7.32057 12.4897 10.2646 11.3463 14.1549 11.3463C18.0714 11.3463 21.0154 12.4897 22.9869 14.7766C24.9846 17.0371 25.9834 20.4017 25.9834 24.8703C25.9834 29.3389 24.9846 32.7166 22.9869 35.0034C21.0154 37.264 18.0714 38.3943 14.1549 38.3943ZM14.1549 35.7131C16.2577 35.6343 17.9663 35.2137 19.2806 34.4514C20.5949 33.6891 21.5543 32.5326 22.1589 30.9817C22.7634 29.4046 23.0657 27.3674 23.0657 24.8703C23.0657 22.3731 22.7503 20.336 22.1194 18.7589C21.5149 17.1554 20.5554 15.9726 19.2411 15.2103C17.9269 14.4217 16.2314 14.0274 14.1549 14.0274C12.1046 14.0274 10.4223 14.4217 9.108 15.2103C7.79372 15.9726 6.82114 17.1554 6.19029 18.7589C5.58571 20.336 5.28343 22.3731 5.28343 24.8703C5.28343 27.3674 5.58571 29.4177 6.19029 31.0211C6.82114 32.6246 7.79372 33.8074 9.108 34.5697C10.4223 35.332 12.1046 35.7131 14.1549 35.7131ZM23.6177 39.104C23.9594 39.104 24.288 39.0514 24.6034 38.9463C24.9451 38.8674 25.392 38.6571 25.944 38.3154V40.8389C25.3657 41.1543 24.84 41.3514 24.3669 41.4303C23.8937 41.5091 23.5389 41.5486 23.3023 41.5486C22.6977 41.5486 22.1326 41.4434 21.6069 41.2331C21.0811 41.0491 20.5817 40.7731 20.1086 40.4051C19.6617 40.0371 19.2411 39.5903 18.8469 39.0646C18.4526 38.5651 18.0977 38 17.7823 37.3691C17.388 36.5806 16.9674 35.8183 16.5206 35.0823C16.1 34.3463 15.5874 33.7417 14.9829 33.2686C14.3783 32.7954 13.5897 32.5589 12.6171 32.5589C11.6183 32.5589 10.764 32.7823 10.0543 33.2291C9.37086 33.676 8.75314 34.2017 8.20114 34.8063V31.9674C8.648 31.6257 9.25257 31.2446 10.0149 30.824C10.7771 30.3771 11.7497 30.1537 12.9326 30.1537C14.168 30.1537 15.2457 30.456 16.1657 31.0606C17.0857 31.6389 17.8743 32.3749 18.5314 33.2686C19.2149 34.136 19.7931 35.0297 20.2663 35.9497C20.8709 37.1063 21.436 37.9211 21.9617 38.3943C22.4874 38.8674 23.0394 39.104 23.6177 39.104ZM39.7341 38.5914C37.9993 38.5914 36.5141 38.2891 35.2787 37.6846C34.0433 37.08 33.097 36.1994 32.4399 35.0429C31.809 33.8863 31.4936 32.4669 31.4936 30.7846V18.3251H34.3324V30.1537C34.3324 32.1514 34.7661 33.6234 35.6336 34.5697C36.5273 35.4897 37.8941 35.9497 39.7341 35.9497C41.5741 35.9497 42.9279 35.4897 43.7953 34.5697C44.689 33.6234 45.1359 32.1514 45.1359 30.1537V18.3251H47.9747V30.7846C47.9747 33.2817 47.2519 35.2137 45.8061 36.5806C44.3867 37.9211 42.3627 38.5914 39.7341 38.5914ZM61.0699 38.5914C60.2025 38.5914 59.3219 38.4994 58.4282 38.3154C57.5608 38.1314 56.7459 37.816 55.9836 37.3691C55.2476 36.9223 54.6431 36.3177 54.1699 35.5554C53.7231 34.7669 53.4996 33.7811 53.4996 32.5983C53.4996 30.9686 53.8019 29.6674 54.4065 28.6949C55.0374 27.696 55.8916 26.9863 56.9694 26.5657C58.0734 26.1189 59.3351 25.8954 60.7545 25.8954C61.8322 25.8954 62.7654 25.9611 63.5539 26.0926C64.3425 26.224 65.0391 26.4211 65.6436 26.684C66.2745 26.9206 66.8396 27.1966 67.3391 27.512L67.8911 30.1143C67.2865 29.6674 66.4059 29.2863 65.2494 28.9709C64.1191 28.6291 62.8705 28.4583 61.5036 28.4583C59.8476 28.4583 58.5728 28.7737 57.6791 29.4046C56.7854 30.0354 56.3385 30.9554 56.3385 32.1646C56.3385 33.1371 56.6014 33.9126 57.1271 34.4909C57.6791 35.0691 58.3625 35.4766 59.1774 35.7131C60.0185 35.9497 60.8728 36.068 61.7402 36.068C63.4488 36.068 64.7368 35.9497 65.6042 35.7131C66.4979 35.4503 66.9448 34.872 66.9448 33.9783V24.9491C66.9448 23.4246 66.4979 22.3074 65.6042 21.5977C64.7105 20.888 63.4356 20.5331 61.7796 20.5331C60.7282 20.5331 59.6111 20.6909 58.4282 21.0063C57.2716 21.2954 56.2728 21.7686 55.4316 22.4257V19.5869C56.2465 19.0611 57.3374 18.6669 58.7042 18.404C60.0711 18.1149 61.3985 17.9703 62.6865 17.9703C63.5539 17.9703 64.3556 18.0623 65.0916 18.2463C65.8276 18.404 66.4848 18.6537 67.0631 18.9954C67.6414 19.3109 68.1276 19.7314 68.5219 20.2571C68.9425 20.7566 69.2579 21.348 69.4682 22.0314C69.7048 22.6886 69.8231 23.4377 69.8231 24.2789V33.8206C69.8231 35.2137 69.4025 36.252 68.5614 36.9354C67.7465 37.6189 66.6688 38.0657 65.3282 38.276C64.0139 38.4863 62.5945 38.5914 61.0699 38.5914ZM78.9591 38H76.1203V10.8337H78.9591V38ZM85.442 38V18.3251H88.2809V38H85.442ZM85.2843 14.816V11.7011H88.4386V14.816H85.2843Z" fill="#38BC7C"/>
<path d="M49.7366 61.6764L46.3063 65.1067H32.7035V44.6433L36.1338 41.2918H32.2303V37.8615H46.3063L49.7366 41.2918V61.6764ZM45.8332 61.6764V41.2918H36.6069V64.6335L39.4852 61.6764H45.8332ZM70.2854 65.1067H59.6002L56.2094 61.6764V48.0735L59.6002 44.6433H66.8945L70.2854 48.0735V54.8947L66.8945 58.2855H60.5859L64.0557 54.8947H66.4214V48.0735H60.1128V61.6764H70.2854V65.1067ZM88.9471 59.6655L83.4665 65.1067H80.2728L74.8317 59.6655V43.697L78.6957 47.6004V59.0347L81.8894 62.1101L85.0437 59.0347V47.6004L88.9471 43.697V59.6655ZM106.353 48.0735H96.6138V51.4644H101.976L105.406 54.8947V61.6764L101.976 65.1067H92.7104V61.6764H101.503V54.8947H96.1407L92.7104 51.4644V48.0735L96.1407 44.6433H102.883L106.353 48.0735Z" fill="#38BC7C"/>
</svg>
